<?xml version="1.0" encoding="utf-8"?>
<!-- Generator: Adobe Illustrator 16.0.0, SVG Export Plug-In . SVG Version: 6.00 Build 0)  -->
<!DOCTYPE svg PUBLIC "-//W3C//DTD SVG 1.1//EN" "http://www.w3.org/Graphics/SVG/1.1/DTD/svg11.dtd">
<svg version="1.1" id="Layer_1" xmlns="http://www.w3.org/2000/svg" xmlns:xlink="http://www.w3.org/1999/xlink" x="0px" y="0px"
	 width="600px" height="600px" viewBox="0 0 600 600" enable-background="new 0 0 600 600" xml:space="preserve">
<path fill="rgb(204, 166, 232)" d="M519.172,164.527c39.106-27.05,41.853-71.222,22.678-98.941c-20.94-30.282-64.866-38.388-103.973-11.337l-21.559,14.91
	C383.49,42.318,336,32.5,297.703,32.647c-45.672,0.175-81.963,11.523-113.512,34.51l-17.279-19.96
	C133.468,13.394,89.493,18.38,65.534,42.087c-26.175,25.893-26.511,70.559,6.933,104.359l25.688,25.962
	c-24.425,54.935-35.667,116.725-35.667,169.3c0,129.905,105.309,235.215,235.215,235.215c129.904,0,235.213-105.31,235.213-235.215
	c0-50.227-12.098-108.858-35.848-161.894L519.172,164.527z"/>
</svg>
