<?xml version="1.0" encoding="utf-8"?>
<!-- Generator: Adobe Illustrator 16.0.0, SVG Export Plug-In . SVG Version: 6.00 Build 0)  -->
<!DOCTYPE svg PUBLIC "-//W3C//DTD SVG 1.1//EN" "http://www.w3.org/Graphics/SVG/1.1/DTD/svg11.dtd">
<svg version="1.1" id="Layer_1" xmlns="http://www.w3.org/2000/svg" xmlns:xlink="http://www.w3.org/1999/xlink" x="0px" y="0px"
	 width="936px" height="936px" viewBox="0 0 936 936" enable-background="new 0 0 936 936" xml:space="preserve">
<g>
	<path d="M446.097,453.732l-58.146,42.206l-11.908,9.397l-24.229,19.118l0.107,0.135c-0.898,0.571-1.779,1.187-2.635,1.861
		c-11.446,9.032-14.489,24.256-6.798,34.002c7.691,9.745,23.205,10.327,34.649,1.296c0.857-0.676,1.66-1.391,2.423-2.132
		l0.106,0.137l24.228-19.12l11.908-9.396l28.122-22.191L446.097,453.732z"/>
	<path d="M539.586,513.428l29.768,19.93l12.606,8.439l25.646,17.169l0.096-0.144c0.819,0.68,1.676,1.328,2.581,1.935
		c12.116,8.11,27.538,6.321,34.444-3.996c6.905-10.317,2.685-25.257-9.43-33.366c-0.906-0.607-1.834-1.151-2.773-1.65l0.098-0.143
		l-25.648-17.169l-12.604-8.438l-49.784-29.936L539.586,513.428z"/>
	<path fill="#00AFEC" d="M587.886,582.002c0-40.919-76.834-183.337-76.834-183.337H470.37c0,0-77.484,129.49-77.484,183.337
		c0,12.716,2.437,24.861,6.864,36h181.271C585.449,606.863,587.886,594.718,587.886,582.002z"/>
	<path d="M581.021,618.002H399.75c6.576,16.541,17.558,30.847,31.483,41.494v6.405v14.153v28.794h0.16
		c-0.102,0.986-0.16,1.987-0.16,3.005c0,13.603,9.391,24.629,20.975,24.629s20.975-11.026,20.975-24.629
		c0-1.018-0.059-2.019-0.16-3.005h0.16v-28.794v-2.084c5.586,0.995,11.331,1.531,17.203,1.531c4.721,0,9.357-0.351,13.898-0.999
		v1.552v28.794h0.16c-0.102,0.986-0.16,1.987-0.16,3.005c0,13.603,9.391,24.629,20.975,24.629s20.975-11.026,20.975-24.629
		c0-1.018-0.059-2.019-0.16-3.005h0.16v-28.794v-14.153v-3.981C561.73,651.068,573.933,635.831,581.021,618.002z"/>
</g>
<path d="M601.648,292.918L601.518,129.6c-1.605-25.365-17.934-52.094-47.842-52.094c-29.255,0-46.167,26.728-47.833,52.094
	l-0.104,121.712c-5.209-0.558-10.344-0.844-15.354-0.844c-5.008,0-10.143,0.271-15.352,0.801l-0.098-121.668
	c-1.604-25.366-17.932-52.094-47.839-52.094c-29.256,0-46.168,26.728-47.833,52.094l-0.137,162.263
	c-21.436,18.912-35.884,43.796-35.884,73.595c0,63.51,56.878,114.994,147.142,114.994c82.847,0,147.142-51.484,147.142-114.994
	C637.527,336.689,623.082,311.981,601.648,292.918z"/>
</svg>
