<?xml version="1.0" encoding="utf-8"?>
<!-- Generator: Adobe Illustrator 16.0.0, SVG Export Plug-In . SVG Version: 6.00 Build 0)  -->
<!DOCTYPE svg PUBLIC "-//W3C//DTD SVG 1.1//EN" "http://www.w3.org/Graphics/SVG/1.1/DTD/svg11.dtd">
<svg version="1.1" id="Layer_1" xmlns="http://www.w3.org/2000/svg" xmlns:xlink="http://www.w3.org/1999/xlink" x="0px" y="0px"
	 width="600px" height="600px" viewBox="0 0 600 600" enable-background="new 0 0 600 600" xml:space="preserve">
<path d="M566.34,239.182c-0.303-0.316-0.634-0.581-0.944-0.884l0.051-0.048L442.992,110.275
	c-36.008-51.094-85.908-88.452-141.058-88.452c-56.82,0-108.067,39.654-144.288,93.132L32.195,234.993l0.048,0.052
	c-0.321,0.285-0.665,0.54-0.979,0.839c-14.836,14.198-20.85,44.979-5.427,61.099c15.421,16.115,46.44,11.465,61.277-2.732
	c0.312-0.301,0.581-0.633,0.883-0.943l0.047,0.051l15.153-14.501c0,0.232-0.008,0.466-0.008,0.696
	c0,55.799,23.025,106.193,60.053,142.291l-2.38,107.996l0.07,0.004c-0.025,0.428-0.087,0.852-0.1,1.281
	c-0.448,20.535,17.062,46.553,39.367,47.045c22.299,0.49,40.946-24.73,41.397-45.262c0.01-0.436-0.036-0.859-0.041-1.293
	l0.068,0.004l1.373-62.209c18.623,5.775,38.417,8.891,58.939,8.891c20.079,0,39.447-3.006,57.716-8.541l-1.323,60.08l0.069,0.004
	c-0.024,0.428-0.087,0.852-0.1,1.281c-0.448,20.535,17.062,46.553,39.366,47.045c22.299,0.49,40.946-24.73,41.396-45.262
	c0.012-0.436-0.034-0.859-0.04-1.293l0.067,0.004l2.44-110.631c34.816-34.365,56.979-81.482,58.963-133.78l6.591,6.89l0.053-0.045
	c0.286,0.32,0.542,0.663,0.839,0.976c14.199,14.836,44.982,20.85,61.1,5.429C585.188,285.038,580.537,254.018,566.34,239.182z"/>
</svg>
