<?xml version="1.0" encoding="utf-8"?>
<!-- Generator: Adobe Illustrator 16.0.0, SVG Export Plug-In . SVG Version: 6.00 Build 0)  -->
<!DOCTYPE svg PUBLIC "-//W3C//DTD SVG 1.1//EN" "http://www.w3.org/Graphics/SVG/1.1/DTD/svg11.dtd">
<svg version="1.1" id="Layer_1" xmlns="http://www.w3.org/2000/svg" xmlns:xlink="http://www.w3.org/1999/xlink" x="0px" y="0px"
	 width="100px" height="100px" viewBox="0 0 100 100" enable-background="new 0 0 100 100" xml:space="preserve">
<path fill-rule="evenodd" clip-rule="evenodd" fill="#A3A3A3" d="M72.511,54.048c-0.6-2.531-1.594-4.788-2.262-7.212
	c-2.133-7.741-4.133-15.52-6.181-23.284c-0.793-3.011-1.561-6.028-2.373-9.034c-0.242-0.898-0.651-1.704-1.766-1.785
	c-1.139-0.083-1.743,0.573-2.138,1.523c-0.346,0.832-0.696,1.664-1.017,2.508c-2.134,5.607-4.261,11.219-6.386,16.83
	c-0.26,0.687-0.629,1.206-1.461,1.149c-5.602-0.38-4.402,1.024-6.558-4.391c-0.167-0.419-0.295-0.854-0.456-1.274
	c-1.854-4.847-3.703-9.694-5.57-14.535c-0.37-0.961-0.877-1.844-2.108-1.767c-1.259,0.078-1.737,0.981-2.017,2.051
	c-0.957,3.667-1.936,7.329-2.861,11.005c-0.394,1.565-1.473,5.618-1.601,6.1c-0.946,3.575-2.014,7.123-2.821,10.729
	c-0.85,3.8-2.832,7.246-3.367,11.121c-0.534,3.863-0.744,7.745,0.57,11.507c2.071,5.926,6.719,8.941,12.4,10.695
	c5.891,1.818,11.945,1.624,17.99,1.294c2.896-0.158,5.713-0.816,8.442-1.823c5.106-1.883,9.084-4.979,10.939-10.294
	C73.18,61.525,73.379,57.711,72.511,54.048z"/>
<path fill-rule="evenodd" clip-rule="evenodd" d="M46.918,57.091c0.901,0.023,1.81,0.01,2.598,0.564
	c1.104,0.776,1.135,1.528,0.09,2.367c-1.844,1.479-1.893,2.532-0.194,4.27c0.755,0.773,1.541,1.52,2.26,2.325
	c0.522,0.586,0.743,1.316,0.11,1.94c-0.688,0.678-1.235,0.081-1.726-0.381c-0.689-0.648-1.352-1.325-2.018-1.997
	c-0.714-0.721-1.41-0.696-2.1,0.03c-0.651,0.687-1.301,1.373-1.953,2.059c-0.515,0.541-1.121,0.858-1.783,0.335
	c-0.713-0.563-0.366-1.179,0.044-1.779c0.696-1.018,1.699-1.737,2.509-2.643c1.544-1.728,1.472-2.71-0.309-4.083
	c-1.167-0.9-1.077-1.921,0.23-2.617C45.381,57.105,46.151,57.109,46.918,57.091z"/>
<path fill-rule="evenodd" clip-rule="evenodd" d="M61.496,53.321c2.168,0.05,3.683,1.577,3.662,3.694
	c-0.019,2.085-1.75,3.662-3.942,3.59c-2.021-0.065-3.561-1.675-3.545-3.711C57.686,54.858,59.382,53.273,61.496,53.321z"/>
<path fill-rule="evenodd" clip-rule="evenodd" d="M32.492,60.592c-2.091-0.015-3.604-1.537-3.572-3.592
	c0.034-2.149,1.593-3.707,3.686-3.681c2.045,0.024,3.74,1.728,3.695,3.711C36.254,59.094,34.637,60.606,32.492,60.592z"/>
<g>
	<path fill-rule="evenodd" clip-rule="evenodd" d="M35.359,25.721c-0.1-0.257-0.269-0.506-0.598-0.428
		c-0.302,0.071-0.376,0.355-0.446,0.621c-0.308,1.176-0.615,2.352-0.927,3.526c-0.729,2.741-1.463,5.48-2.182,8.225
		c-0.113,0.431-0.236,0.904,0.165,1.266c0.319,0.287,0.693,0.183,1.006-0.012c1.811-1.124,3.775-1.899,5.772-2.607
		c0.508-0.181,0.823-0.543,0.79-1.126c-0.014-0.089-0.011-0.185-0.042-0.267C37.722,31.852,36.544,28.784,35.359,25.721z"/>
	<path fill-rule="evenodd" clip-rule="evenodd" d="M59.711,25.438c-0.072-0.262-0.25-0.498-0.564-0.512
		c-0.392-0.018-0.538,0.283-0.653,0.581c-1.207,3.11-2.411,6.222-3.61,9.334c-0.274,0.713-0.056,1.285,0.646,1.544
		c2.205,0.811,4.329,1.793,6.434,2.829c0.747,0.368,1.22,0.043,1.191-1.208C62.071,34.044,60.897,29.739,59.711,25.438z"/>
</g>
</svg>
