<?xml version="1.0" encoding="utf-8"?>
<!-- Generator: Adobe Illustrator 16.0.0, SVG Export Plug-In . SVG Version: 6.00 Build 0)  -->
<!DOCTYPE svg PUBLIC "-//W3C//DTD SVG 1.1//EN" "http://www.w3.org/Graphics/SVG/1.1/DTD/svg11.dtd">
<svg version="1.1" id="Layer_1" xmlns="http://www.w3.org/2000/svg" xmlns:xlink="http://www.w3.org/1999/xlink" x="0px" y="0px"
	 width="100px" height="100px" viewBox="0 0 100 100" enable-background="new 0 0 100 100" xml:space="preserve">
<g>
	<path fill-rule="evenodd" clip-rule="evenodd" fill="#A3A3A3" d="M89.65,53.752c-1.281-2.203-2.716-4.321-4.146-6.434
		c-5.424-8.019-11.624-15.387-18.657-22.05c-0.598-0.566-1.213-1.097-2.01-1.362c-0.002,0-0.002,0-0.002,0.001
		c-2.226-2.286-4.82-3.819-8.011-4.463c-2.594-0.522-5.185-0.266-7.771-0.439c-6.323-0.425-11.349,2.156-15.735,6.47
		c-4.182,4.113-8.277,8.293-11.921,12.9c-3.77,4.764-7.351,9.651-10.32,14.963c0,0,0,0,0,0c-1.053,1.036-1.481,2.324-1.355,3.76
		c0.196,2.264,1.658,4.06,3.667,4.628c2.013,0.568,4.124-0.202,5.464-2.134c1.164-1.675,2.209-3.431,3.32-5.145
		c0.175-0.271,0.279-0.711,0.796-0.507c0.279,0.61,0.075,1.21-0.091,1.785c-0.841,2.906-0.878,5.832-0.348,8.795
		c1.332,7.449,5.345,12.856,12.342,15.8c4.799,2.017,9.883,2.776,15.105,2.847c3.146,0.041,6.214-0.385,9.258-0.96
		c4.104-0.777,7.982-2.257,11.232-4.971c6.362-5.313,8.345-12.21,7.079-20.214c-0.191-1.213-0.439-2.416-0.691-3.791
		c0.972,0.405,1.234,1.1,1.603,1.687c0.893,1.427,1.727,2.892,2.634,4.306c1.26,1.961,3.395,2.969,5.324,2.58
		C90.094,61.059,91.679,57.235,89.65,53.752z"/>
	<path fill-rule="evenodd" clip-rule="evenodd" d="M50.24,51.887c1.741-0.018,3.129,0.326,4.454,0.885
		c1.868,0.791,2.242,2.267,1.072,3.96c-0.739,1.068-1.744,1.859-2.744,2.65c-1.696,1.342-2.012,3.52-0.634,5.223
		c0.897,1.109,1.948,2.092,2.907,3.151c0.605,0.669,1.189,1.475,0.408,2.288c-0.85,0.883-1.582,0.125-2.214-0.475
		c-0.739-0.705-1.442-1.447-2.152-2.18c-0.665-0.686-1.311-0.683-1.983-0.004c-0.826,0.833-1.654,1.668-2.51,2.471
		c-0.602,0.564-1.336,0.925-2.038,0.256c-0.72-0.687-0.334-1.418,0.216-2.023c0.757-0.83,1.52-1.66,2.341-2.423
		c1.229-1.142,1.619-2.522,1.482-4.151c-0.08-0.947-0.42-1.653-1.246-2.139c-1.159-0.686-2.123-1.587-2.872-2.713
		c-1.148-1.725-0.854-2.917,1.022-3.839C47.248,52.088,48.885,51.957,50.24,51.887z"/>
	<path fill-rule="evenodd" clip-rule="evenodd" d="M36.804,43.277c-2.802,0.021-4.726,1.978-4.674,4.756
		c0.045,2.401,2.153,4.362,4.647,4.326c2.619-0.038,4.687-2.1,4.681-4.668C41.453,45.126,39.481,43.257,36.804,43.277z"/>
	<path fill-rule="evenodd" clip-rule="evenodd" d="M63.414,43.542c-2.627,0.021-4.268,1.665-4.295,4.307
		c-0.023,2.287,1.971,4.275,4.295,4.281c2.373,0.007,4.359-1.9,4.365-4.191C67.787,45.223,66.097,43.521,63.414,43.542z"/>
</g>
</svg>
