<?xml version="1.0" encoding="utf-8"?>
<!-- Generator: Adobe Illustrator 16.0.0, SVG Export Plug-In . SVG Version: 6.00 Build 0)  -->
<!DOCTYPE svg PUBLIC "-//W3C//DTD SVG 1.1//EN" "http://www.w3.org/Graphics/SVG/1.1/DTD/svg11.dtd">
<svg version="1.1" id="Layer_1" xmlns="http://www.w3.org/2000/svg" xmlns:xlink="http://www.w3.org/1999/xlink" x="0px" y="0px"
	 width="600px" height="600px" viewBox="0 0 600 600" enable-background="new 0 0 600 600" xml:space="preserve">
<path fill="rgb(204, 166, 232)" d="M582.361,329.119c-9.117-15.675-19.322-30.745-29.495-45.778
	c-38.589-57.055-82.703-109.478-132.744-156.881c-4.252-4.031-8.629-7.803-14.299-9.693c-0.014,0-0.014,0.004-0.014,0.007
	c-15.835-16.266-34.297-27.174-56.997-31.752c-18.454-3.718-36.887-1.891-55.286-3.123c-44.989-3.023-80.748,15.338-111.952,46.031
	c-29.752,29.265-58.889,59.003-84.819,91.781c-26.82,33.894-52.302,68.666-73.428,106.463c0,0,0,0-0.004,0
	c-7.493,7.373-10.537,16.535-9.644,26.751c1.397,16.104,11.798,28.883,26.087,32.927c14.32,4.044,29.338-1.439,38.875-15.181
	c8.282-11.917,15.72-24.409,23.62-36.604c1.244-1.932,1.984-5.059,5.663-3.606c1.987,4.343,0.535,8.608-0.65,12.7
	c-5.982,20.678-6.246,41.495-2.477,62.576c9.474,53,38.027,91.472,87.81,112.414c34.147,14.348,70.315,19.752,107.475,20.253
	c22.383,0.292,44.214-2.737,65.872-6.83c29.195-5.531,56.793-16.058,79.918-35.365c45.267-37.806,59.37-86.873,50.366-143.82
	c-1.362-8.629-3.127-17.189-4.919-26.972c6.913,2.883,8.782,7.823,11.402,11.999c6.35,10.151,12.282,20.573,18.737,30.635
	c8.965,13.951,24.153,21.121,37.882,18.356C585.516,381.104,596.792,353.902,582.361,329.119z"/>
</svg>
