<?xml version="1.0" encoding="iso-8859-1"?>
<!-- Generator: Adobe Illustrator 18.0.0, SVG Export Plug-In . SVG Version: 6.00 Build 0)  -->
<!DOCTYPE svg PUBLIC "-//W3C//DTD SVG 1.1//EN" "http://www.w3.org/Graphics/SVG/1.1/DTD/svg11.dtd">
<svg version="1.1" id="Capa_1" xmlns="http://www.w3.org/2000/svg" xmlns:xlink="http://www.w3.org/1999/xlink" x="0px" y="0px"
	 viewBox="0 0 59.555 59.555" style="enable-background:new 0 0 59.555 59.555;" xml:space="preserve">
<g>
	<path style="fill:#FCF6FF;" d="M28.801,45.778c-8.094,0-15.954-3.002-22.133-8.454l-3.746-3.305C1.699,32.939,0.998,31.373,1,29.72
		c0.001-1.652,0.706-3.217,1.932-4.294l3.697-3.247c6.168-5.418,14.008-8.402,22.073-8.402c5.993,0,11.897,1.642,17.074,4.748
		c2.375,1.425,4.631,3.256,6.895,5.598l5.496,5.681l-5.237,5.455c-2.645,2.754-5.461,4.948-8.371,6.521
		C39.72,44.395,34.271,45.778,28.801,45.778z"/>
	<path style="fill:#CF8C6D;" d="M6,29.778c0-1.365-0.687-2.568-1.731-3.29L2.912,27.68c-1.214,1.066-1.216,3.02-0.004,4.089
		l1.419,1.252C5.336,32.295,6,31.117,6,29.778z"/>
	<circle style="fill:#406BB9;" cx="29" cy="29.778" r="16"/>
	<path style="fill:#FBCE9D;" d="M28.801,46.778c-8.338,0-16.433-3.091-22.794-8.703l-3.746-3.306C0.822,33.499-0.002,31.659,0,29.72
		c0.002-1.939,0.83-3.778,2.271-5.045l3.698-3.247c6.351-5.578,14.425-8.65,22.733-8.65c6.175,0,12.256,1.691,17.588,4.891
		c2.451,1.47,4.773,3.354,7.099,5.76l6.166,6.374l-5.904,6.149c-2.716,2.829-5.615,5.086-8.616,6.708
		C40.049,45.354,34.436,46.778,28.801,46.778z M28.702,14.778c-7.822,0-15.427,2.896-21.413,8.153l-3.698,3.247
		c-1.01,0.887-1.59,2.179-1.591,3.544c-0.001,1.365,0.576,2.658,1.584,3.547l3.746,3.306c5.996,5.29,13.621,8.203,21.471,8.203
		c5.304,0,10.588-1.341,15.282-3.878c2.819-1.522,5.552-3.653,8.125-6.333l4.569-4.759l-4.826-4.989
		c-2.203-2.278-4.391-4.057-6.69-5.436C40.24,16.37,34.514,14.778,28.702,14.778z"/>
	<g>
		<path style="fill:#82D0E7;" d="M29,20.778c-0.552,0-1,0.447-1,1v1.883c0,0.553,0.448,1,1,1s1-0.447,1-1v-1.883
			C30,21.225,29.552,20.778,29,20.778z"/>
		<path style="fill:#82D0E7;" d="M29,34.895c-0.552,0-1,0.447-1,1v1.883c0,0.553,0.448,1,1,1s1-0.447,1-1v-1.883
			C30,35.342,29.552,34.895,29,34.895z"/>
		<path style="fill:#82D0E7;" d="M37,28.778h-1.882c-0.552,0-1,0.447-1,1s0.448,1,1,1H37c0.552,0,1-0.447,1-1
			S37.552,28.778,37,28.778z"/>
		<path style="fill:#82D0E7;" d="M22.882,30.778c0.552,0,1-0.447,1-1s-0.448-1-1-1H21c-0.552,0-1,0.447-1,1s0.448,1,1,1H22.882z"/>
		<path style="fill:#82D0E7;" d="M34.033,33.397c-0.391-0.391-1.023-0.391-1.414,0s-0.391,1.023,0,1.414l1.331,1.331
			c0.195,0.195,0.451,0.293,0.707,0.293s0.512-0.098,0.707-0.293c0.391-0.391,0.391-1.023,0-1.414L34.033,33.397z"/>
		<path style="fill:#82D0E7;" d="M23.967,26.158c0.195,0.195,0.451,0.293,0.707,0.293s0.512-0.098,0.707-0.293
			c0.391-0.391,0.391-1.023,0-1.414l-1.331-1.331c-0.391-0.391-1.023-0.391-1.414,0s-0.391,1.023,0,1.414L23.967,26.158z"/>
		<path style="fill:#82D0E7;" d="M32.619,26.158c0.195,0.195,0.451,0.293,0.707,0.293s0.512-0.098,0.707-0.293l1.331-1.331
			c0.391-0.391,0.391-1.023,0-1.414s-1.023-0.391-1.414,0l-1.331,1.331C32.228,25.135,32.228,25.768,32.619,26.158z"/>
		<path style="fill:#82D0E7;" d="M25.381,33.397c-0.391-0.391-1.023-0.391-1.414,0l-1.331,1.331c-0.391,0.391-0.391,1.023,0,1.414
			c0.195,0.195,0.451,0.293,0.707,0.293s0.512-0.098,0.707-0.293l1.331-1.331C25.772,34.42,25.772,33.787,25.381,33.397z"/>
		<path style="fill:#82D0E7;" d="M27.043,21.956c-0.201-0.517-0.783-0.77-1.294-0.571c-0.515,0.2-0.771,0.779-0.571,1.294
			l0.68,1.755c0.154,0.396,0.532,0.639,0.933,0.639c0.121,0,0.243-0.021,0.361-0.067c0.515-0.2,0.771-0.779,0.571-1.294
			L27.043,21.956z"/>
		<path style="fill:#82D0E7;" d="M32.142,35.121c-0.201-0.516-0.783-0.771-1.294-0.571c-0.515,0.2-0.771,0.779-0.571,1.294
			l0.68,1.755c0.154,0.396,0.532,0.639,0.933,0.639c0.121,0,0.243-0.021,0.361-0.067c0.515-0.2,0.771-0.779,0.571-1.294
			L32.142,35.121z"/>
		<path style="fill:#82D0E7;" d="M33.772,27.929c0.153,0.396,0.532,0.639,0.933,0.639c0.12,0,0.242-0.021,0.361-0.067l1.755-0.68
			c0.515-0.199,0.771-0.778,0.572-1.294c-0.199-0.515-0.777-0.77-1.293-0.571l-1.755,0.68
			C33.829,26.834,33.573,27.413,33.772,27.929z"/>
		<path style="fill:#82D0E7;" d="M24.228,31.626c-0.199-0.515-0.777-0.77-1.293-0.571l-1.755,0.68
			c-0.515,0.199-0.771,0.778-0.572,1.294c0.153,0.396,0.532,0.639,0.933,0.639c0.12,0,0.242-0.021,0.361-0.067l1.755-0.68
			C24.171,32.721,24.427,32.142,24.228,31.626z"/>
		<path style="fill:#82D0E7;" d="M36.722,32.094L35,31.334c-0.504-0.221-1.096,0.007-1.319,0.512
			c-0.223,0.505,0.006,1.096,0.511,1.318l1.722,0.76c0.131,0.058,0.269,0.085,0.403,0.085c0.384,0,0.75-0.223,0.916-0.597
			C37.456,32.907,37.227,32.317,36.722,32.094z"/>
		<path style="fill:#82D0E7;" d="M21.278,27.461L23,28.221c0.131,0.058,0.269,0.085,0.403,0.085c0.384,0,0.75-0.223,0.916-0.597
			c0.223-0.505-0.006-1.096-0.511-1.318l-1.722-0.76c-0.506-0.222-1.096,0.007-1.319,0.512
			C20.544,26.648,20.773,27.239,21.278,27.461z"/>
		<path style="fill:#82D0E7;" d="M31.067,25.096c0.131,0.058,0.269,0.085,0.404,0.085c0.384,0,0.75-0.222,0.915-0.596l0.761-1.722
			c0.223-0.505-0.005-1.096-0.51-1.319c-0.504-0.223-1.096,0.004-1.319,0.511l-0.761,1.722
			C30.334,24.281,30.562,24.872,31.067,25.096z"/>
		<path style="fill:#82D0E7;" d="M26.933,34.459c-0.505-0.222-1.096,0.004-1.319,0.511l-0.761,1.722
			c-0.223,0.505,0.005,1.096,0.51,1.319c0.131,0.058,0.269,0.085,0.404,0.085c0.384,0,0.75-0.222,0.915-0.596l0.761-1.722
			C27.667,35.274,27.438,34.683,26.933,34.459z"/>
	</g>
	<circle style="fill:#122335;" cx="29" cy="29.778" r="6"/>
	<g>
		<path style="fill:#82D0E7;" d="M29,15.778c-1.472,0-2.921,0.227-4.307,0.673c-0.525,0.17-0.814,0.733-0.645,1.259
			c0.137,0.424,0.529,0.693,0.952,0.693c0.102,0,0.205-0.016,0.307-0.048c1.187-0.383,2.429-0.577,3.692-0.577c0.552,0,1-0.447,1-1
			S29.552,15.778,29,15.778z"/>
		<path style="fill:#82D0E7;" d="M21.885,17.784c-0.117,0.013-0.234,0.048-0.346,0.105c-0.019,0.01-0.037,0.021-0.055,0.031h-0.001
			c-0.45,0.271-0.712,0.885-0.479,1.354c0.131,0.264,0.393,0.431,0.683,0.491c0.101,0.034,0.208,0.051,0.314,0.051
			c0.185,0,0.371-0.051,0.538-0.157c0.876-0.561,0.446-1.361,0.427-1.396C22.901,18.147,22.579,17.646,21.885,17.784z"/>
		<path style="fill:#82D0E7;" d="M18.893,20.084C16.382,22.702,15,26.145,15,29.778c0,0.553,0.448,1,1,1s1-0.447,1-1
			c0-3.114,1.185-6.065,3.336-8.309c0.382-0.398,0.369-1.032-0.029-1.414C19.909,19.674,19.275,19.687,18.893,20.084z"/>
	</g>
	<circle style="fill:#FFFFFF;" cx="25.5" cy="25.278" r="2.5"/>
</g>
<g>
</g>
<g>
</g>
<g>
</g>
<g>
</g>
<g>
</g>
<g>
</g>
<g>
</g>
<g>
</g>
<g>
</g>
<g>
</g>
<g>
</g>
<g>
</g>
<g>
</g>
<g>
</g>
<g>
</g>
</svg>
