<?xml version="1.0" encoding="utf-8"?>
<!-- Generator: Adobe Illustrator 16.0.0, SVG Export Plug-In . SVG Version: 6.00 Build 0)  -->
<!DOCTYPE svg PUBLIC "-//W3C//DTD SVG 1.1//EN" "http://www.w3.org/Graphics/SVG/1.1/DTD/svg11.dtd">
<svg version="1.1" id="Layer_1" xmlns="http://www.w3.org/2000/svg" xmlns:xlink="http://www.w3.org/1999/xlink" x="0px" y="0px"
	 width="600px" height="600px" viewBox="0 0 600 600" enable-background="new 0 0 600 600" xml:space="preserve">
<g>
	<path fill="none" d="M300.001,107.327"/>
	<path fill="#00F3FF" d="M485.389,304.339h-53.297c-5.722,67.96-62.649,121.343-132.09,121.343s-126.375-53.383-132.089-121.343
		h-53.298c5.848,97.196,86.742,174.498,185.387,174.498C398.647,478.837,479.539,401.535,485.389,304.339z"/>
	<path fill="#AAAAAA" d="M184.881,466.542c31.909,24.472,71.801,39.054,115.114,39.054c43.326,0,83.212-14.576,115.114-39.054
		c-33.001,21.97-72.576,34.815-115.108,34.815C257.463,501.357,217.883,488.512,184.881,466.542z"/>
	<path d="M508.274,293.078c0-114.847-93.425-208.272-208.273-208.272c-114.848,0-208.276,93.425-208.276,208.272
		c0,72.309,37.058,136.107,93.156,173.464c33.001,21.97,72.582,34.815,115.12,34.815c42.532,0,82.107-12.846,115.108-34.815
		C471.216,429.186,508.274,365.395,508.274,293.078z M300.001,107.327c96.474,0,175.929,73.94,184.842,168.126
		c0.208,2.113,0.415,4.232,0.545,6.371H114.614c0.129-2.146,0.341-4.258,0.539-6.385
		C124.073,181.267,203.527,107.327,300.001,107.327z M114.614,304.339h53.298c5.714,67.96,62.648,121.343,132.089,121.343
		s126.369-53.383,132.09-121.343h53.297c-5.85,97.196-86.741,174.498-185.387,174.498
		C201.356,478.837,120.462,401.535,114.614,304.339z"/>
</g>
</svg>
