<?xml version="1.0" encoding="utf-8"?>
<!-- Generator: Adobe Illustrator 16.0.0, SVG Export Plug-In . SVG Version: 6.00 Build 0)  -->
<!DOCTYPE svg PUBLIC "-//W3C//DTD SVG 1.1//EN" "http://www.w3.org/Graphics/SVG/1.1/DTD/svg11.dtd">
<svg version="1.1" id="Layer_1" xmlns="http://www.w3.org/2000/svg" xmlns:xlink="http://www.w3.org/1999/xlink" x="0px" y="0px"
	 width="600px" height="600px" viewBox="0 0 600 600" enable-background="new 0 0 600 600" xml:space="preserve">
<g>
	<path fill="#231F20" d="M512.69,263.096c0-116.316-94.632-210.948-210.949-210.948c-116.317,0-210.948,94.631-210.948,210.948
		c0,59.233,24.55,112.832,63.997,151.186l-51.449,80.35l31.625,20.249l49.148-76.756c28.076,18.929,60.93,31.287,96.341,34.853
		v74.876h37.552v-74.43c36.167-2.771,69.804-14.712,98.601-33.481l45.435,75.259l32.15-19.408l-47.852-79.257
		C487.164,378.045,512.69,323.497,512.69,263.096z M128.346,263.096c0-95.61,77.785-173.395,173.395-173.395
		c95.612,0,173.396,77.785,173.396,173.395c0,95.611-77.784,173.396-173.396,173.396
		C206.131,436.492,128.346,358.707,128.346,263.096z"/>
	<circle fill="#231F20" cx="301.741" cy="263.097" r="125.176"/>
</g>
</svg>
