<?xml version="1.0" encoding="utf-8"?>
<!-- Generator: Adobe Illustrator 16.0.0, SVG Export Plug-In . SVG Version: 6.00 Build 0)  -->
<!DOCTYPE svg PUBLIC "-//W3C//DTD SVG 1.1//EN" "http://www.w3.org/Graphics/SVG/1.1/DTD/svg11.dtd">
<svg version="1.1" id="Layer_1" xmlns="http://www.w3.org/2000/svg" xmlns:xlink="http://www.w3.org/1999/xlink" x="0px" y="0px"
	 width="600px" height="600px" viewBox="0 0 600 600" enable-background="new 0 0 600 600" xml:space="preserve">
<g>
	<path d="M400.5,355.834c16.448,0,30.571,9.931,36.717,24.121c22.171-21.682,35.283-47.246,35.283-72.121
		c0-61.856-81.036-112-181-112c-99.963,0-181,50.144-181,112c0,24.875,13.113,50.439,35.283,72.121
		c6.146-14.19,20.269-24.121,36.717-24.121c22.091,0,40,17.908,40,40c0,9.863-9.496,25.861-9.496,25.861s9.496,25.472,78.496,25.472
		c56.333,0,78.495-25.472,78.495-25.472s-9.495-15.998-9.495-25.861C360.5,373.742,378.408,355.834,400.5,355.834z"/>
</g>
</svg>
