<?xml version="1.0" encoding="utf-8"?>
<!-- Generator: Adobe Illustrator 16.0.0, SVG Export Plug-In . SVG Version: 6.00 Build 0)  -->
<!DOCTYPE svg PUBLIC "-//W3C//DTD SVG 1.1//EN" "http://www.w3.org/Graphics/SVG/1.1/DTD/svg11.dtd">
<svg version="1.1" id="Layer_1" xmlns="http://www.w3.org/2000/svg" xmlns:xlink="http://www.w3.org/1999/xlink" x="0px" y="0px"
	 width="100px" height="100px" viewBox="0 0 100 100" enable-background="new 0 0 100 100" xml:space="preserve">
<path fill-rule="evenodd" clip-rule="evenodd" fill="#A3A3A3" d="M76.427,55.358c-0.811-3.014-1.983-6.006-4.314-8.278
	c-0.707-0.688-1.417-2.252-1.417-2.252s-0.26-1.301-0.226-2.04c0.299-6.372,0.54-12.747,0.792-19.121
	c0.059-1.509-0.047-3.014-0.556-4.443c-1.403-3.951-5.723-6.458-10.223-5.671c-4,0.699-7.032,3.646-7.396,8.26
	c-0.341,4.347-0.476,8.713-0.618,13.073c-0.041,1.256-0.033,3.427-0.033,3.427l-4.497,0c0,0-0.287-12.663-0.818-14.996
	c-0.194-1.31-0.389-2.62-0.584-3.929c-1.162-3.708-4.941-6.156-8.912-6.1c-3.725,0.051-7.168,2.633-8.355,6.287
	c-0.771,2.378-0.46,4.833-0.35,7.27c0.257,5.625,0.495,11.25,0.736,16.875c0.035,0.828-0.156,1.604-0.752,2.207
	c-3.889,3.929-5.698,8.789-6.147,14.175c-0.673,8.076,1.907,14.369,9.082,18.734c3.563,2.168,7.479,3.191,11.563,3.734
	c3.996,0.533,7.985,0.732,11.972,0.065c0.261-0.019,0.52-0.056,0.777-0.128c4.51-0.4,8.754-1.656,12.615-4.043
	c4.187-2.59,6.936-6.281,8.008-11.105C77.667,63.345,77.481,59.277,76.427,55.358z"/>
<path fill-rule="evenodd" clip-rule="evenodd" d="M65.854,28.506c-0.147,3.744-0.299,7.488-0.446,11.232
	c-0.069,1.777-0.388,1.979-2.053,1.292c-1.474-0.608-2.962-1.175-4.512-1.564c-0.9-0.226-1.351-0.757-1.31-1.711
	c0.229-5.146,0.373-10.298,0.696-15.438c0.151-2.419,1.877-3.817,4.118-3.708c2.251,0.108,3.633,1.65,3.665,4.136
	c0.024,1.921,0.005,3.842,0.005,5.762C65.963,28.507,65.909,28.506,65.854,28.506z"/>
<path fill-rule="evenodd" clip-rule="evenodd" d="M34.127,28.676c0-2.11-0.039-4.219,0.011-6.327
	c0.053-2.121,1.43-3.566,3.451-3.744c2.004-0.176,3.655,1.004,4.134,3.026c0.446,1.882,0.45,3.819,0.521,5.734
	c0.115,3.185,0.108,6.373,0.33,9.556c0.134,1.939-0.106,2.129-1.897,2.699c-1.292,0.412-2.562,0.905-3.823,1.405
	c-1.713,0.68-2.018,0.504-2.106-1.396c-0.172-3.651-0.323-7.303-0.481-10.955C34.218,28.675,34.173,28.676,34.127,28.676z"/>
<path fill-rule="evenodd" clip-rule="evenodd" d="M39.507,59.311c-0.018,2.118-1.648,3.749-3.73,3.733
	c-2.295-0.021-3.895-1.641-3.855-3.905c0.036-2.088,1.789-3.715,3.96-3.674C37.948,55.502,39.525,57.174,39.507,59.311z"/>
<path fill-rule="evenodd" clip-rule="evenodd" d="M60.616,59.223c0.01-2.24,1.564-3.762,3.828-3.743
	c2.132,0.017,3.77,1.704,3.767,3.882c-0.003,2.075-1.764,3.698-3.97,3.661C62.096,62.987,60.606,61.427,60.616,59.223z"/>
<path fill-rule="evenodd" clip-rule="evenodd" d="M50.031,59.643c1.353,0.076,2.536,0.125,3.585,0.737
	c1.128,0.656,1.267,1.453,0.385,2.393c-0.41,0.438-0.916,0.807-1.431,1.119c-1.665,1.008-2.005,2.75-0.716,4.238
	c0.857,0.992,1.827,1.887,2.726,2.846c0.465,0.496,0.909,1.092,0.292,1.719c-0.651,0.66-1.201,0.111-1.682-0.344
	c-0.646-0.615-1.291-1.232-1.892-1.893c-0.863-0.943-1.649-0.875-2.493,0.033c-0.668,0.721-1.381,1.406-2.105,2.072
	c-0.424,0.385-0.949,0.752-1.482,0.217c-0.492-0.496-0.279-1.08,0.115-1.52c0.844-0.943,1.759-1.822,2.614-2.758
	c1.714-1.871,1.503-3.318-0.569-4.676c-0.873-0.57-2.163-1.109-1.863-2.363c0.291-1.217,1.598-1.44,2.738-1.601
	C48.903,59.773,49.554,59.701,50.031,59.643z"/>
</svg>
