<?xml version="1.0" encoding="utf-8"?>
<!-- Generator: Adobe Illustrator 16.0.0, SVG Export Plug-In . SVG Version: 6.00 Build 0)  -->
<!DOCTYPE svg PUBLIC "-//W3C//DTD SVG 1.1//EN" "http://www.w3.org/Graphics/SVG/1.1/DTD/svg11.dtd">
<svg version="1.1" id="Layer_1" xmlns="http://www.w3.org/2000/svg" xmlns:xlink="http://www.w3.org/1999/xlink" x="0px" y="0px"
	 width="600px" height="600px" viewBox="0 0 600 600" enable-background="new 0 0 600 600" xml:space="preserve">
<path d="M457.589,320.271l-0.186-231.322c-2.271-35.927-25.4-73.785-67.76-73.785c-41.438,0-65.391,37.857-67.75,73.785
	l-0.146,172.391c-7.378-0.79-14.653-1.195-21.749-1.195c-7.092,0-14.365,0.383-21.741,1.134l-0.139-172.329
	c-2.272-35.927-25.4-73.785-67.759-73.785c-41.438,0-65.392,37.857-67.75,73.785l-0.193,229.827
	C112.054,345.564,91.59,380.81,91.59,423.018c0,89.953,80.562,162.875,208.409,162.875c117.342,0,208.41-72.922,208.41-162.875
	C508.409,382.268,487.948,347.271,457.589,320.271z"/>
</svg>
